<?xml version="1.0" standalone="no"?>
<!DOCTYPE svg PUBLIC "-//W3C//DTD SVG 20010904//EN"
 "http://www.w3.org/TR/2001/REC-SVG-20010904/DTD/svg10.dtd">
<svg version="1.0" xmlns="http://www.w3.org/2000/svg"
 width="240.000000pt" height="240.000000pt" viewBox="0 0 240.000000 240.000000"
 preserveAspectRatio="xMidYMid meet">
<metadata>
Created by potrace 1.14, written by Peter Selinger 2001-2017
</metadata>
<g transform="translate(0.000000,240.000000) scale(0.100000,-0.100000)"
fill="#000000" stroke="none">
<path d="M1198 2364 c-3 -5 -18 -40 -33 -79 -88 -223 -213 -427 -457 -750
-194 -257 -206 -274 -237 -340 -62 -132 -81 -218 -81 -365 0 -368 247 -685
608 -782 109 -29 296 -29 405 1 163 43 317 142 424 270 71 86 147 242 168 346
16 76 21 226 10 290 -25 148 -69 251 -160 375 -46 63 -38 53 -113 150 -91 119
-214 288 -267 370 -44 68 -155 257 -155 265 0 2 -16 38 -36 80 -19 42 -43 99
-53 127 -10 29 -20 48 -23 42z"/>
</g>
</svg>
